<mxfile host="Electron" agent="Mozilla/5.0 (Windows NT 10.0; Win64; x64) AppleWebKit/537.36 (KHTML, like Gecko) draw.io/25.0.1 Chrome/128.0.6613.186 Electron/32.2.6 Safari/537.36" version="25.0.1">
  <diagram name="Page-1" id="5x3QlWRq-N3S-oAhGKyv">
    <mxGraphModel dx="3404" dy="2179" grid="1" gridSize="10" guides="1" tooltips="1" connect="1" arrows="1" fold="1" page="1" pageScale="1" pageWidth="1100" pageHeight="850" math="0" shadow="0">
      <root>
        <mxCell id="0" />
        <mxCell id="1" parent="0" />
        <mxCell id="BXiqwRlGKzKQuI-ZINDh-2" value="" style="shape=mxgraph.cisco.computers_and_peripherals.pc;sketch=0;html=1;pointerEvents=1;dashed=0;fillColor=#036897;strokeColor=#ffffff;strokeWidth=2;verticalLabelPosition=bottom;verticalAlign=top;align=center;outlineConnect=0;" parent="1" vertex="1">
          <mxGeometry x="-447.5" y="425.75" width="78" height="70" as="geometry" />
        </mxCell>
        <mxCell id="BXiqwRlGKzKQuI-ZINDh-9" value="" style="shape=mxgraph.cisco.computers_and_peripherals.pc;sketch=0;html=1;pointerEvents=1;dashed=0;fillColor=#036897;strokeColor=#ffffff;strokeWidth=2;verticalLabelPosition=bottom;verticalAlign=top;align=center;outlineConnect=0;" parent="1" vertex="1">
          <mxGeometry x="-324" y="419.5" width="78" height="70" as="geometry" />
        </mxCell>
        <mxCell id="BXiqwRlGKzKQuI-ZINDh-10" value="" style="shape=mxgraph.cisco.computers_and_peripherals.pc;sketch=0;html=1;pointerEvents=1;dashed=0;fillColor=#036897;strokeColor=#ffffff;strokeWidth=2;verticalLabelPosition=bottom;verticalAlign=top;align=center;outlineConnect=0;" parent="1" vertex="1">
          <mxGeometry x="-707" y="436" width="78" height="70" as="geometry" />
        </mxCell>
        <mxCell id="BXiqwRlGKzKQuI-ZINDh-11" value="" style="shape=mxgraph.cisco.computers_and_peripherals.pc;sketch=0;html=1;pointerEvents=1;dashed=0;fillColor=#036897;strokeColor=#ffffff;strokeWidth=2;verticalLabelPosition=bottom;verticalAlign=top;align=center;outlineConnect=0;" parent="1" vertex="1">
          <mxGeometry x="61" y="401" width="78" height="70" as="geometry" />
        </mxCell>
        <mxCell id="BXiqwRlGKzKQuI-ZINDh-12" value="" style="shape=mxgraph.cisco.computers_and_peripherals.pc;sketch=0;html=1;pointerEvents=1;dashed=0;fillColor=#036897;strokeColor=#ffffff;strokeWidth=2;verticalLabelPosition=bottom;verticalAlign=top;align=center;outlineConnect=0;" parent="1" vertex="1">
          <mxGeometry x="-70" y="410" width="78" height="70" as="geometry" />
        </mxCell>
        <mxCell id="BXiqwRlGKzKQuI-ZINDh-14" value="" style="shape=mxgraph.cisco.switches.workgroup_switch;sketch=0;html=1;pointerEvents=1;dashed=0;fillColor=#036897;strokeColor=#ffffff;strokeWidth=2;verticalLabelPosition=bottom;verticalAlign=top;align=center;outlineConnect=0;" parent="1" vertex="1">
          <mxGeometry x="-81" y="310" width="101" height="50" as="geometry" />
        </mxCell>
        <mxCell id="s2B2YG-71K-emKwGEbhx-11" style="edgeStyle=orthogonalEdgeStyle;rounded=0;orthogonalLoop=1;jettySize=auto;html=1;" parent="1" source="BXiqwRlGKzKQuI-ZINDh-15" target="BXiqwRlGKzKQuI-ZINDh-29" edge="1">
          <mxGeometry relative="1" as="geometry">
            <Array as="points">
              <mxPoint x="90" y="160" />
              <mxPoint x="-240" y="160" />
            </Array>
          </mxGeometry>
        </mxCell>
        <mxCell id="BXiqwRlGKzKQuI-ZINDh-15" value="" style="shape=mxgraph.cisco.switches.workgroup_switch;sketch=0;html=1;pointerEvents=1;dashed=0;fillColor=#036897;strokeColor=#ffffff;strokeWidth=2;verticalLabelPosition=bottom;verticalAlign=top;align=center;outlineConnect=0;" parent="1" vertex="1">
          <mxGeometry x="50" y="301" width="101" height="50" as="geometry" />
        </mxCell>
        <mxCell id="s2B2YG-71K-emKwGEbhx-4" style="edgeStyle=orthogonalEdgeStyle;rounded=0;orthogonalLoop=1;jettySize=auto;html=1;" parent="1" source="BXiqwRlGKzKQuI-ZINDh-16" target="BXiqwRlGKzKQuI-ZINDh-29" edge="1">
          <mxGeometry relative="1" as="geometry">
            <Array as="points">
              <mxPoint x="-660" y="120" />
            </Array>
          </mxGeometry>
        </mxCell>
        <mxCell id="BXiqwRlGKzKQuI-ZINDh-16" value="" style="shape=mxgraph.cisco.switches.workgroup_switch;sketch=0;html=1;pointerEvents=1;dashed=0;fillColor=#036897;strokeColor=#ffffff;strokeWidth=2;verticalLabelPosition=bottom;verticalAlign=top;align=center;outlineConnect=0;" parent="1" vertex="1">
          <mxGeometry x="-718" y="326" width="101" height="50" as="geometry" />
        </mxCell>
        <mxCell id="s2B2YG-71K-emKwGEbhx-5" style="edgeStyle=orthogonalEdgeStyle;rounded=0;orthogonalLoop=1;jettySize=auto;html=1;" parent="1" source="BXiqwRlGKzKQuI-ZINDh-17" target="BXiqwRlGKzKQuI-ZINDh-29" edge="1">
          <mxGeometry relative="1" as="geometry">
            <Array as="points">
              <mxPoint x="-400" y="140" />
            </Array>
          </mxGeometry>
        </mxCell>
        <mxCell id="BXiqwRlGKzKQuI-ZINDh-17" value="" style="shape=mxgraph.cisco.switches.workgroup_switch;sketch=0;html=1;pointerEvents=1;dashed=0;fillColor=#036897;strokeColor=#ffffff;strokeWidth=2;verticalLabelPosition=bottom;verticalAlign=top;align=center;outlineConnect=0;" parent="1" vertex="1">
          <mxGeometry x="-459" y="315.75" width="101" height="50" as="geometry" />
        </mxCell>
        <mxCell id="BXiqwRlGKzKQuI-ZINDh-18" value="Business Consultants&lt;div&gt;Floor 4&amp;nbsp;&lt;/div&gt;&lt;div&gt;(34)&lt;/div&gt;" style="text;html=1;align=center;verticalAlign=middle;whiteSpace=wrap;rounded=0;" parent="1" vertex="1">
          <mxGeometry x="-90" y="490" width="118" height="40" as="geometry" />
        </mxCell>
        <mxCell id="BXiqwRlGKzKQuI-ZINDh-19" value="Client Management (31)" style="text;html=1;align=center;verticalAlign=middle;whiteSpace=wrap;rounded=0;" parent="1" vertex="1">
          <mxGeometry x="50" y="491" width="91" height="40" as="geometry" />
        </mxCell>
        <mxCell id="BXiqwRlGKzKQuI-ZINDh-20" value="Sales&amp;amp;Marketing&lt;div&gt;Floor 1&lt;/div&gt;&lt;div&gt;&amp;nbsp;(16)&lt;/div&gt;" style="text;html=1;align=center;verticalAlign=middle;whiteSpace=wrap;rounded=0;" parent="1" vertex="1">
          <mxGeometry x="-718" y="526" width="91" height="50" as="geometry" />
        </mxCell>
        <mxCell id="BXiqwRlGKzKQuI-ZINDh-21" value="Communications (22)" style="text;html=1;align=center;verticalAlign=middle;whiteSpace=wrap;rounded=0;" parent="1" vertex="1">
          <mxGeometry x="-330.5" y="509.5" width="91" height="40" as="geometry" />
        </mxCell>
        <mxCell id="BXiqwRlGKzKQuI-ZINDh-22" value="Security (16)" style="text;html=1;align=center;verticalAlign=middle;whiteSpace=wrap;rounded=0;" parent="1" vertex="1">
          <mxGeometry x="-454" y="515.75" width="91" height="40" as="geometry" />
        </mxCell>
        <mxCell id="s2B2YG-71K-emKwGEbhx-6" style="edgeStyle=orthogonalEdgeStyle;rounded=0;orthogonalLoop=1;jettySize=auto;html=1;exitX=1;exitY=0;exitDx=0;exitDy=0;exitPerimeter=0;" parent="1" source="BXiqwRlGKzKQuI-ZINDh-23" target="BXiqwRlGKzKQuI-ZINDh-29" edge="1">
          <mxGeometry relative="1" as="geometry">
            <Array as="points">
              <mxPoint x="-234" y="190" />
              <mxPoint x="-270" y="190" />
            </Array>
          </mxGeometry>
        </mxCell>
        <mxCell id="BXiqwRlGKzKQuI-ZINDh-23" value="" style="shape=mxgraph.cisco.switches.workgroup_switch;sketch=0;html=1;pointerEvents=1;dashed=0;fillColor=#036897;strokeColor=#ffffff;strokeWidth=2;verticalLabelPosition=bottom;verticalAlign=top;align=center;outlineConnect=0;" parent="1" vertex="1">
          <mxGeometry x="-335.5" y="309.5" width="101" height="50" as="geometry" />
        </mxCell>
        <mxCell id="BXiqwRlGKzKQuI-ZINDh-24" value="" style="endArrow=none;html=1;rounded=0;exitX=0.5;exitY=0;exitDx=0;exitDy=0;exitPerimeter=0;entryX=0.5;entryY=0.98;entryDx=0;entryDy=0;entryPerimeter=0;" parent="1" source="BXiqwRlGKzKQuI-ZINDh-12" target="BXiqwRlGKzKQuI-ZINDh-14" edge="1">
          <mxGeometry width="50" height="50" relative="1" as="geometry">
            <mxPoint x="100" y="380" as="sourcePoint" />
            <mxPoint x="150" y="330" as="targetPoint" />
          </mxGeometry>
        </mxCell>
        <mxCell id="BXiqwRlGKzKQuI-ZINDh-25" value="" style="endArrow=none;html=1;rounded=0;" parent="1" source="BXiqwRlGKzKQuI-ZINDh-11" target="BXiqwRlGKzKQuI-ZINDh-15" edge="1">
          <mxGeometry width="50" height="50" relative="1" as="geometry">
            <mxPoint x="51" y="401" as="sourcePoint" />
            <mxPoint x="101" y="351" as="targetPoint" />
          </mxGeometry>
        </mxCell>
        <mxCell id="BXiqwRlGKzKQuI-ZINDh-26" value="" style="endArrow=none;html=1;rounded=0;entryX=0.5;entryY=0.98;entryDx=0;entryDy=0;entryPerimeter=0;" parent="1" source="BXiqwRlGKzKQuI-ZINDh-10" target="BXiqwRlGKzKQuI-ZINDh-16" edge="1">
          <mxGeometry width="50" height="50" relative="1" as="geometry">
            <mxPoint x="-707" y="426" as="sourcePoint" />
            <mxPoint x="-657" y="376" as="targetPoint" />
          </mxGeometry>
        </mxCell>
        <mxCell id="BXiqwRlGKzKQuI-ZINDh-27" value="" style="endArrow=none;html=1;rounded=0;" parent="1" source="BXiqwRlGKzKQuI-ZINDh-9" target="BXiqwRlGKzKQuI-ZINDh-23" edge="1">
          <mxGeometry width="50" height="50" relative="1" as="geometry">
            <mxPoint x="-225" y="389.5" as="sourcePoint" />
            <mxPoint x="-225" y="359.5" as="targetPoint" />
          </mxGeometry>
        </mxCell>
        <mxCell id="BXiqwRlGKzKQuI-ZINDh-28" value="" style="endArrow=none;html=1;rounded=0;" parent="1" source="BXiqwRlGKzKQuI-ZINDh-2" target="BXiqwRlGKzKQuI-ZINDh-17" edge="1">
          <mxGeometry width="50" height="50" relative="1" as="geometry">
            <mxPoint x="-457.5" y="425.75" as="sourcePoint" />
            <mxPoint x="-407.5" y="375.75" as="targetPoint" />
          </mxGeometry>
        </mxCell>
        <mxCell id="BXiqwRlGKzKQuI-ZINDh-29" value="" style="shape=mxgraph.cisco.switches.workgroup_switch;sketch=0;html=1;pointerEvents=1;dashed=0;fillColor=#036897;strokeColor=#ffffff;strokeWidth=2;verticalLabelPosition=bottom;verticalAlign=top;align=center;outlineConnect=0;" parent="1" vertex="1">
          <mxGeometry x="-281.5" y="90" width="101" height="50" as="geometry" />
        </mxCell>
        <mxCell id="BXiqwRlGKzKQuI-ZINDh-37" value="2716" style="text;html=1;align=center;verticalAlign=middle;whiteSpace=wrap;rounded=0;" parent="1" vertex="1">
          <mxGeometry x="40" y="160.25" width="60" height="20" as="geometry" />
        </mxCell>
        <mxCell id="BXiqwRlGKzKQuI-ZINDh-39" value="1611" style="text;html=1;align=center;verticalAlign=middle;whiteSpace=wrap;rounded=0;" parent="1" vertex="1">
          <mxGeometry x="-283" y="190.75" width="60" height="30" as="geometry" />
        </mxCell>
        <mxCell id="BXiqwRlGKzKQuI-ZINDh-40" value="1215" style="text;html=1;align=center;verticalAlign=middle;whiteSpace=wrap;rounded=0;" parent="1" vertex="1">
          <mxGeometry x="-412.5" y="140.75" width="60" height="30" as="geometry" />
        </mxCell>
        <mxCell id="BXiqwRlGKzKQuI-ZINDh-69" value="" style="shape=mxgraph.cisco.computers_and_peripherals.pc;sketch=0;html=1;pointerEvents=1;dashed=0;fillColor=#036897;strokeColor=#ffffff;strokeWidth=2;verticalLabelPosition=bottom;verticalAlign=top;align=center;outlineConnect=0;" parent="1" vertex="1">
          <mxGeometry x="996.5" y="425" width="78" height="70" as="geometry" />
        </mxCell>
        <mxCell id="BXiqwRlGKzKQuI-ZINDh-70" value="" style="shape=mxgraph.cisco.computers_and_peripherals.pc;sketch=0;html=1;pointerEvents=1;dashed=0;fillColor=#036897;strokeColor=#ffffff;strokeWidth=2;verticalLabelPosition=bottom;verticalAlign=top;align=center;outlineConnect=0;" parent="1" vertex="1">
          <mxGeometry x="373.5" y="433.75" width="78" height="70" as="geometry" />
        </mxCell>
        <mxCell id="BXiqwRlGKzKQuI-ZINDh-71" value="" style="shape=mxgraph.cisco.computers_and_peripherals.pc;sketch=0;html=1;pointerEvents=1;dashed=0;fillColor=#036897;strokeColor=#ffffff;strokeWidth=2;verticalLabelPosition=bottom;verticalAlign=top;align=center;outlineConnect=0;" parent="1" vertex="1">
          <mxGeometry x="492" y="433.75" width="78" height="70" as="geometry" />
        </mxCell>
        <mxCell id="BXiqwRlGKzKQuI-ZINDh-72" value="" style="shape=mxgraph.cisco.computers_and_peripherals.pc;sketch=0;html=1;pointerEvents=1;dashed=0;fillColor=#036897;strokeColor=#ffffff;strokeWidth=2;verticalLabelPosition=bottom;verticalAlign=top;align=center;outlineConnect=0;" parent="1" vertex="1">
          <mxGeometry x="613.5" y="435.75" width="78" height="70" as="geometry" />
        </mxCell>
        <mxCell id="BXiqwRlGKzKQuI-ZINDh-73" value="" style="shape=mxgraph.cisco.computers_and_peripherals.pc;sketch=0;html=1;pointerEvents=1;dashed=0;fillColor=#036897;strokeColor=#ffffff;strokeWidth=2;verticalLabelPosition=bottom;verticalAlign=top;align=center;outlineConnect=0;" parent="1" vertex="1">
          <mxGeometry x="873.5" y="439.5" width="78" height="70" as="geometry" />
        </mxCell>
        <mxCell id="s2B2YG-71K-emKwGEbhx-16" style="edgeStyle=orthogonalEdgeStyle;rounded=0;orthogonalLoop=1;jettySize=auto;html=1;" parent="1" source="BXiqwRlGKzKQuI-ZINDh-75" target="BXiqwRlGKzKQuI-ZINDh-93" edge="1">
          <mxGeometry relative="1" as="geometry">
            <Array as="points">
              <mxPoint x="912" y="210" />
              <mxPoint x="790" y="210" />
            </Array>
          </mxGeometry>
        </mxCell>
        <mxCell id="BXiqwRlGKzKQuI-ZINDh-75" value="" style="shape=mxgraph.cisco.switches.workgroup_switch;sketch=0;html=1;pointerEvents=1;dashed=0;fillColor=#036897;strokeColor=#ffffff;strokeWidth=2;verticalLabelPosition=bottom;verticalAlign=top;align=center;outlineConnect=0;" parent="1" vertex="1">
          <mxGeometry x="862" y="294.5" width="101" height="50" as="geometry" />
        </mxCell>
        <mxCell id="BXiqwRlGKzKQuI-ZINDh-77" value="" style="shape=mxgraph.cisco.switches.workgroup_switch;sketch=0;html=1;pointerEvents=1;dashed=0;fillColor=#036897;strokeColor=#ffffff;strokeWidth=2;verticalLabelPosition=bottom;verticalAlign=top;align=center;outlineConnect=0;" parent="1" vertex="1">
          <mxGeometry x="602" y="290.75" width="101" height="50" as="geometry" />
        </mxCell>
        <mxCell id="s2B2YG-71K-emKwGEbhx-13" style="edgeStyle=orthogonalEdgeStyle;rounded=0;orthogonalLoop=1;jettySize=auto;html=1;" parent="1" source="BXiqwRlGKzKQuI-ZINDh-79" target="BXiqwRlGKzKQuI-ZINDh-93" edge="1">
          <mxGeometry relative="1" as="geometry">
            <Array as="points">
              <mxPoint x="531" y="140" />
            </Array>
          </mxGeometry>
        </mxCell>
        <mxCell id="BXiqwRlGKzKQuI-ZINDh-79" value="" style="shape=mxgraph.cisco.switches.workgroup_switch;sketch=0;html=1;pointerEvents=1;dashed=0;fillColor=#036897;strokeColor=#ffffff;strokeWidth=2;verticalLabelPosition=bottom;verticalAlign=top;align=center;outlineConnect=0;" parent="1" vertex="1">
          <mxGeometry x="480.5" y="288.75" width="101" height="50" as="geometry" />
        </mxCell>
        <mxCell id="s2B2YG-71K-emKwGEbhx-17" style="edgeStyle=orthogonalEdgeStyle;rounded=0;orthogonalLoop=1;jettySize=auto;html=1;" parent="1" source="BXiqwRlGKzKQuI-ZINDh-80" target="BXiqwRlGKzKQuI-ZINDh-93" edge="1">
          <mxGeometry relative="1" as="geometry">
            <Array as="points">
              <mxPoint x="1036" y="200" />
              <mxPoint x="800" y="200" />
            </Array>
          </mxGeometry>
        </mxCell>
        <mxCell id="BXiqwRlGKzKQuI-ZINDh-80" value="" style="shape=mxgraph.cisco.switches.workgroup_switch;sketch=0;html=1;pointerEvents=1;dashed=0;fillColor=#036897;strokeColor=#ffffff;strokeWidth=2;verticalLabelPosition=bottom;verticalAlign=top;align=center;outlineConnect=0;" parent="1" vertex="1">
          <mxGeometry x="985" y="295" width="101" height="50" as="geometry" />
        </mxCell>
        <mxCell id="BXiqwRlGKzKQuI-ZINDh-81" value="IT&lt;div&gt;Floor 3&lt;br&gt;&lt;div&gt;(10)&lt;/div&gt;&lt;/div&gt;" style="text;html=1;align=center;verticalAlign=middle;whiteSpace=wrap;rounded=0;" parent="1" vertex="1">
          <mxGeometry x="867" y="519.5" width="91" height="40" as="geometry" />
        </mxCell>
        <mxCell id="BXiqwRlGKzKQuI-ZINDh-82" value="Legal&amp;nbsp;&lt;div&gt;(25)&lt;/div&gt;" style="text;html=1;align=center;verticalAlign=middle;whiteSpace=wrap;rounded=0;" parent="1" vertex="1">
          <mxGeometry x="607" y="515.75" width="91" height="40" as="geometry" />
        </mxCell>
        <mxCell id="BXiqwRlGKzKQuI-ZINDh-83" value="Finance&lt;div&gt;(28)&lt;/div&gt;" style="text;html=1;align=center;verticalAlign=middle;whiteSpace=wrap;rounded=0;" parent="1" vertex="1">
          <mxGeometry x="485.5" y="513.75" width="91" height="40" as="geometry" />
        </mxCell>
        <mxCell id="BXiqwRlGKzKQuI-ZINDh-84" value="HR&lt;div&gt;(25)&lt;/div&gt;" style="text;html=1;align=center;verticalAlign=middle;whiteSpace=wrap;rounded=0;" parent="1" vertex="1">
          <mxGeometry x="363.5" y="513.75" width="91" height="40" as="geometry" />
        </mxCell>
        <mxCell id="BXiqwRlGKzKQuI-ZINDh-85" value="Research&amp;amp;Analysis&lt;div&gt;Floor 4&lt;/div&gt;&lt;div&gt;(4)&lt;/div&gt;" style="text;html=1;align=center;verticalAlign=middle;whiteSpace=wrap;rounded=0;" parent="1" vertex="1">
          <mxGeometry x="990" y="525" width="91" height="40" as="geometry" />
        </mxCell>
        <mxCell id="s2B2YG-71K-emKwGEbhx-12" style="edgeStyle=orthogonalEdgeStyle;rounded=0;orthogonalLoop=1;jettySize=auto;html=1;" parent="1" source="BXiqwRlGKzKQuI-ZINDh-87" target="BXiqwRlGKzKQuI-ZINDh-93" edge="1">
          <mxGeometry relative="1" as="geometry">
            <Array as="points">
              <mxPoint x="410" y="130" />
            </Array>
          </mxGeometry>
        </mxCell>
        <mxCell id="BXiqwRlGKzKQuI-ZINDh-87" value="" style="shape=mxgraph.cisco.switches.workgroup_switch;sketch=0;html=1;pointerEvents=1;dashed=0;fillColor=#036897;strokeColor=#ffffff;strokeWidth=2;verticalLabelPosition=bottom;verticalAlign=top;align=center;outlineConnect=0;" parent="1" vertex="1">
          <mxGeometry x="362" y="288.75" width="101" height="50" as="geometry" />
        </mxCell>
        <mxCell id="BXiqwRlGKzKQuI-ZINDh-88" value="" style="endArrow=none;html=1;rounded=0;exitX=0.5;exitY=0;exitDx=0;exitDy=0;exitPerimeter=0;entryX=0.5;entryY=0.98;entryDx=0;entryDy=0;entryPerimeter=0;" parent="1" source="BXiqwRlGKzKQuI-ZINDh-73" target="BXiqwRlGKzKQuI-ZINDh-75" edge="1">
          <mxGeometry width="50" height="50" relative="1" as="geometry">
            <mxPoint x="1055" y="409.5" as="sourcePoint" />
            <mxPoint x="1105" y="359.5" as="targetPoint" />
          </mxGeometry>
        </mxCell>
        <mxCell id="BXiqwRlGKzKQuI-ZINDh-89" value="" style="endArrow=none;html=1;rounded=0;" parent="1" source="BXiqwRlGKzKQuI-ZINDh-72" target="BXiqwRlGKzKQuI-ZINDh-77" edge="1">
          <mxGeometry width="50" height="50" relative="1" as="geometry">
            <mxPoint x="632" y="435.75" as="sourcePoint" />
            <mxPoint x="682" y="385.75" as="targetPoint" />
          </mxGeometry>
        </mxCell>
        <mxCell id="BXiqwRlGKzKQuI-ZINDh-90" value="" style="endArrow=none;html=1;rounded=0;entryX=0.5;entryY=0.98;entryDx=0;entryDy=0;entryPerimeter=0;" parent="1" source="BXiqwRlGKzKQuI-ZINDh-71" target="BXiqwRlGKzKQuI-ZINDh-79" edge="1">
          <mxGeometry width="50" height="50" relative="1" as="geometry">
            <mxPoint x="530.5" y="423.75" as="sourcePoint" />
            <mxPoint x="580.5" y="373.75" as="targetPoint" />
          </mxGeometry>
        </mxCell>
        <mxCell id="BXiqwRlGKzKQuI-ZINDh-91" value="" style="endArrow=none;html=1;rounded=0;" parent="1" source="BXiqwRlGKzKQuI-ZINDh-70" target="BXiqwRlGKzKQuI-ZINDh-87" edge="1">
          <mxGeometry width="50" height="50" relative="1" as="geometry">
            <mxPoint x="435" y="403.75" as="sourcePoint" />
            <mxPoint x="435" y="373.75" as="targetPoint" />
          </mxGeometry>
        </mxCell>
        <mxCell id="BXiqwRlGKzKQuI-ZINDh-92" value="" style="endArrow=none;html=1;rounded=0;" parent="1" source="BXiqwRlGKzKQuI-ZINDh-69" target="BXiqwRlGKzKQuI-ZINDh-80" edge="1">
          <mxGeometry width="50" height="50" relative="1" as="geometry">
            <mxPoint x="1012.02" y="425" as="sourcePoint" />
            <mxPoint x="1062.02" y="375" as="targetPoint" />
          </mxGeometry>
        </mxCell>
        <mxCell id="g66wI6sif0jjf1UmDSFJ-50" style="edgeStyle=orthogonalEdgeStyle;rounded=0;orthogonalLoop=1;jettySize=auto;html=1;" parent="1" source="BXiqwRlGKzKQuI-ZINDh-93" target="BXiqwRlGKzKQuI-ZINDh-128" edge="1">
          <mxGeometry relative="1" as="geometry">
            <Array as="points">
              <mxPoint x="825" y="40" />
              <mxPoint x="260" y="40" />
            </Array>
          </mxGeometry>
        </mxCell>
        <mxCell id="BXiqwRlGKzKQuI-ZINDh-93" value="" style="shape=mxgraph.cisco.switches.workgroup_switch;sketch=0;html=1;pointerEvents=1;dashed=0;fillColor=#036897;strokeColor=#ffffff;strokeWidth=2;verticalLabelPosition=bottom;verticalAlign=top;align=center;outlineConnect=0;" parent="1" vertex="1">
          <mxGeometry x="774" y="100" width="101" height="50" as="geometry" />
        </mxCell>
        <mxCell id="BXiqwRlGKzKQuI-ZINDh-96" value="&lt;font style=&quot;font-size: 14px;&quot;&gt;2351&lt;/font&gt;" style="text;html=1;align=center;verticalAlign=middle;whiteSpace=wrap;rounded=0;" parent="1" vertex="1">
          <mxGeometry x="643" y="150" width="60" height="20" as="geometry" />
        </mxCell>
        <mxCell id="BXiqwRlGKzKQuI-ZINDh-97" value="2042" style="text;html=1;align=center;verticalAlign=middle;whiteSpace=wrap;rounded=0;" parent="1" vertex="1">
          <mxGeometry x="527" y="148.5" width="60" height="15" as="geometry" />
        </mxCell>
        <mxCell id="BXiqwRlGKzKQuI-ZINDh-98" value="1901" style="text;html=1;align=center;verticalAlign=middle;whiteSpace=wrap;rounded=0;" parent="1" vertex="1">
          <mxGeometry x="410" y="150" width="60" height="30" as="geometry" />
        </mxCell>
        <mxCell id="BXiqwRlGKzKQuI-ZINDh-101" value="" style="shape=mxgraph.cisco.computers_and_peripherals.pc;sketch=0;html=1;pointerEvents=1;dashed=0;fillColor=#036897;strokeColor=#ffffff;strokeWidth=2;verticalLabelPosition=bottom;verticalAlign=top;align=center;outlineConnect=0;" parent="1" vertex="1">
          <mxGeometry x="1366.5" y="425" width="78" height="70" as="geometry" />
        </mxCell>
        <mxCell id="BXiqwRlGKzKQuI-ZINDh-102" value="" style="shape=mxgraph.cisco.computers_and_peripherals.pc;sketch=0;html=1;pointerEvents=1;dashed=0;fillColor=#036897;strokeColor=#ffffff;strokeWidth=2;verticalLabelPosition=bottom;verticalAlign=top;align=center;outlineConnect=0;" parent="1" vertex="1">
          <mxGeometry x="1241.5" y="425" width="78" height="70" as="geometry" />
        </mxCell>
        <mxCell id="s2B2YG-71K-emKwGEbhx-21" style="edgeStyle=orthogonalEdgeStyle;rounded=0;orthogonalLoop=1;jettySize=auto;html=1;" parent="1" source="BXiqwRlGKzKQuI-ZINDh-103" target="BXiqwRlGKzKQuI-ZINDh-93" edge="1">
          <mxGeometry relative="1" as="geometry">
            <Array as="points">
              <mxPoint x="1410" y="170" />
              <mxPoint x="830" y="170" />
            </Array>
          </mxGeometry>
        </mxCell>
        <mxCell id="BXiqwRlGKzKQuI-ZINDh-103" value="" style="shape=mxgraph.cisco.switches.workgroup_switch;sketch=0;html=1;pointerEvents=1;dashed=0;fillColor=#036897;strokeColor=#ffffff;strokeWidth=2;verticalLabelPosition=bottom;verticalAlign=top;align=center;outlineConnect=0;" parent="1" vertex="1">
          <mxGeometry x="1355" y="300" width="101" height="50" as="geometry" />
        </mxCell>
        <mxCell id="BXiqwRlGKzKQuI-ZINDh-104" value="Project Management&amp;nbsp;&lt;div&gt;(16)&lt;/div&gt;" style="text;html=1;align=center;verticalAlign=middle;whiteSpace=wrap;rounded=0;" parent="1" vertex="1">
          <mxGeometry x="1235" y="515" width="91" height="40" as="geometry" />
        </mxCell>
        <mxCell id="BXiqwRlGKzKQuI-ZINDh-105" value="Executive&lt;div&gt;(1)&lt;/div&gt;" style="text;html=1;align=center;verticalAlign=middle;whiteSpace=wrap;rounded=0;" parent="1" vertex="1">
          <mxGeometry x="1360" y="510" width="91" height="40" as="geometry" />
        </mxCell>
        <mxCell id="BXiqwRlGKzKQuI-ZINDh-106" value="" style="shape=mxgraph.cisco.switches.workgroup_switch;sketch=0;html=1;pointerEvents=1;dashed=0;fillColor=#036897;strokeColor=#ffffff;strokeWidth=2;verticalLabelPosition=bottom;verticalAlign=top;align=center;outlineConnect=0;" parent="1" vertex="1">
          <mxGeometry x="1230" y="300" width="101" height="50" as="geometry" />
        </mxCell>
        <mxCell id="BXiqwRlGKzKQuI-ZINDh-107" value="" style="endArrow=none;html=1;rounded=0;" parent="1" source="BXiqwRlGKzKQuI-ZINDh-102" target="BXiqwRlGKzKQuI-ZINDh-106" edge="1">
          <mxGeometry width="50" height="50" relative="1" as="geometry">
            <mxPoint x="1330" y="395" as="sourcePoint" />
            <mxPoint x="1330" y="365" as="targetPoint" />
          </mxGeometry>
        </mxCell>
        <mxCell id="BXiqwRlGKzKQuI-ZINDh-108" value="" style="endArrow=none;html=1;rounded=0;" parent="1" source="BXiqwRlGKzKQuI-ZINDh-101" target="BXiqwRlGKzKQuI-ZINDh-103" edge="1">
          <mxGeometry width="50" height="50" relative="1" as="geometry">
            <mxPoint x="1351.5" y="425" as="sourcePoint" />
            <mxPoint x="1401.5" y="375" as="targetPoint" />
          </mxGeometry>
        </mxCell>
        <mxCell id="BXiqwRlGKzKQuI-ZINDh-109" value="1263" style="text;html=1;align=center;verticalAlign=middle;whiteSpace=wrap;rounded=0;" parent="1" vertex="1">
          <mxGeometry x="1230" y="180.25" width="60" height="20" as="geometry" />
        </mxCell>
        <mxCell id="BXiqwRlGKzKQuI-ZINDh-110" value="71" style="text;html=1;align=center;verticalAlign=middle;whiteSpace=wrap;rounded=0;" parent="1" vertex="1">
          <mxGeometry x="1366.5" y="170.75" width="60" height="20" as="geometry" />
        </mxCell>
        <mxCell id="BXiqwRlGKzKQuI-ZINDh-124" style="edgeStyle=orthogonalEdgeStyle;rounded=0;orthogonalLoop=1;jettySize=auto;html=1;exitX=0.5;exitY=0;exitDx=0;exitDy=0;exitPerimeter=0;entryX=0;entryY=1;entryDx=0;entryDy=0;entryPerimeter=0;" parent="1" source="BXiqwRlGKzKQuI-ZINDh-29" target="BXiqwRlGKzKQuI-ZINDh-128" edge="1">
          <mxGeometry relative="1" as="geometry">
            <mxPoint x="210" y="-25" as="targetPoint" />
            <Array as="points">
              <mxPoint x="-231" y="40" />
              <mxPoint x="227" y="40" />
            </Array>
          </mxGeometry>
        </mxCell>
        <mxCell id="BXiqwRlGKzKQuI-ZINDh-126" value="&lt;font style=&quot;font-size: 14px;&quot;&gt;&lt;b&gt;&lt;font style=&quot;&quot;&gt;1257&lt;/font&gt;9&lt;/b&gt;&lt;/font&gt;" style="text;html=1;align=center;verticalAlign=middle;whiteSpace=wrap;rounded=0;" parent="1" vertex="1">
          <mxGeometry x="273.5" width="60" height="30" as="geometry" />
        </mxCell>
        <mxCell id="BXiqwRlGKzKQuI-ZINDh-127" value="&lt;font style=&quot;font-size: 14px;&quot;&gt;&lt;b&gt;12621&lt;/b&gt;&lt;/font&gt;" style="text;html=1;align=center;verticalAlign=middle;whiteSpace=wrap;rounded=0;" parent="1" vertex="1">
          <mxGeometry x="129" width="60" height="30" as="geometry" />
        </mxCell>
        <mxCell id="BXiqwRlGKzKQuI-ZINDh-128" value="" style="shape=mxgraph.cisco.switches.layer_3_switch;sketch=0;html=1;pointerEvents=1;dashed=0;fillColor=#036897;strokeColor=#ffffff;strokeWidth=2;verticalLabelPosition=bottom;verticalAlign=top;align=center;outlineConnect=0;" parent="1" vertex="1">
          <mxGeometry x="226.5" y="-212.75" width="64" height="64" as="geometry" />
        </mxCell>
        <mxCell id="g66wI6sif0jjf1UmDSFJ-1" value="" style="shape=mxgraph.cisco.computers_and_peripherals.pc;sketch=0;html=1;pointerEvents=1;dashed=0;fillColor=#036897;strokeColor=#ffffff;strokeWidth=2;verticalLabelPosition=bottom;verticalAlign=top;align=center;outlineConnect=0;" parent="1" vertex="1">
          <mxGeometry x="-590.5" y="435" width="78" height="70" as="geometry" />
        </mxCell>
        <mxCell id="g66wI6sif0jjf1UmDSFJ-2" value="" style="shape=mxgraph.cisco.switches.workgroup_switch;sketch=0;html=1;pointerEvents=1;dashed=0;fillColor=#036897;strokeColor=#ffffff;strokeWidth=2;verticalLabelPosition=bottom;verticalAlign=top;align=center;outlineConnect=0;" parent="1" vertex="1">
          <mxGeometry x="-601.5" y="325" width="101" height="50" as="geometry" />
        </mxCell>
        <mxCell id="g66wI6sif0jjf1UmDSFJ-3" value="Sales&amp;amp;Marketing Floor 2&lt;div&gt;(9)&lt;/div&gt;" style="text;html=1;align=center;verticalAlign=middle;whiteSpace=wrap;rounded=0;" parent="1" vertex="1">
          <mxGeometry x="-601.5" y="525" width="91" height="40" as="geometry" />
        </mxCell>
        <mxCell id="g66wI6sif0jjf1UmDSFJ-4" value="" style="endArrow=none;html=1;rounded=0;entryX=0.5;entryY=0.98;entryDx=0;entryDy=0;entryPerimeter=0;" parent="1" source="g66wI6sif0jjf1UmDSFJ-1" target="g66wI6sif0jjf1UmDSFJ-2" edge="1">
          <mxGeometry width="50" height="50" relative="1" as="geometry">
            <mxPoint x="-590.5" y="425" as="sourcePoint" />
            <mxPoint x="-540.5" y="375" as="targetPoint" />
          </mxGeometry>
        </mxCell>
        <mxCell id="g66wI6sif0jjf1UmDSFJ-6" value="" style="shape=mxgraph.cisco.computers_and_peripherals.pc;sketch=0;html=1;pointerEvents=1;dashed=0;fillColor=#036897;strokeColor=#ffffff;strokeWidth=2;verticalLabelPosition=bottom;verticalAlign=top;align=center;outlineConnect=0;" parent="1" vertex="1">
          <mxGeometry x="751.5" y="439.5" width="78" height="70" as="geometry" />
        </mxCell>
        <mxCell id="s2B2YG-71K-emKwGEbhx-15" style="edgeStyle=orthogonalEdgeStyle;rounded=0;orthogonalLoop=1;jettySize=auto;html=1;" parent="1" source="g66wI6sif0jjf1UmDSFJ-7" target="BXiqwRlGKzKQuI-ZINDh-93" edge="1">
          <mxGeometry relative="1" as="geometry">
            <Array as="points">
              <mxPoint x="780" y="190" />
              <mxPoint x="780" y="190" />
            </Array>
          </mxGeometry>
        </mxCell>
        <mxCell id="g66wI6sif0jjf1UmDSFJ-7" value="" style="shape=mxgraph.cisco.switches.workgroup_switch;sketch=0;html=1;pointerEvents=1;dashed=0;fillColor=#036897;strokeColor=#ffffff;strokeWidth=2;verticalLabelPosition=bottom;verticalAlign=top;align=center;outlineConnect=0;" parent="1" vertex="1">
          <mxGeometry x="740" y="294.5" width="101" height="50" as="geometry" />
        </mxCell>
        <mxCell id="g66wI6sif0jjf1UmDSFJ-8" value="IT&lt;div&gt;Floor 2&lt;br&gt;&lt;div&gt;(36)&lt;/div&gt;&lt;/div&gt;" style="text;html=1;align=center;verticalAlign=middle;whiteSpace=wrap;rounded=0;" parent="1" vertex="1">
          <mxGeometry x="745" y="519.5" width="91" height="40" as="geometry" />
        </mxCell>
        <mxCell id="g66wI6sif0jjf1UmDSFJ-9" value="" style="endArrow=none;html=1;rounded=0;exitX=0.5;exitY=0;exitDx=0;exitDy=0;exitPerimeter=0;entryX=0.5;entryY=0.98;entryDx=0;entryDy=0;entryPerimeter=0;" parent="1" source="g66wI6sif0jjf1UmDSFJ-6" target="g66wI6sif0jjf1UmDSFJ-7" edge="1">
          <mxGeometry width="50" height="50" relative="1" as="geometry">
            <mxPoint x="928" y="409.5" as="sourcePoint" />
            <mxPoint x="978" y="359.5" as="targetPoint" />
          </mxGeometry>
        </mxCell>
        <mxCell id="g66wI6sif0jjf1UmDSFJ-10" value="" style="shape=mxgraph.cisco.computers_and_peripherals.pc;sketch=0;html=1;pointerEvents=1;dashed=0;fillColor=#036897;strokeColor=#ffffff;strokeWidth=2;verticalLabelPosition=bottom;verticalAlign=top;align=center;outlineConnect=0;" parent="1" vertex="1">
          <mxGeometry x="-197" y="410" width="78" height="70" as="geometry" />
        </mxCell>
        <mxCell id="s2B2YG-71K-emKwGEbhx-8" style="edgeStyle=orthogonalEdgeStyle;rounded=0;orthogonalLoop=1;jettySize=auto;html=1;" parent="1" source="g66wI6sif0jjf1UmDSFJ-11" edge="1">
          <mxGeometry relative="1" as="geometry">
            <mxPoint x="-260" y="140" as="targetPoint" />
            <Array as="points">
              <mxPoint x="-158" y="180" />
              <mxPoint x="-260" y="180" />
            </Array>
          </mxGeometry>
        </mxCell>
        <mxCell id="g66wI6sif0jjf1UmDSFJ-11" value="" style="shape=mxgraph.cisco.switches.workgroup_switch;sketch=0;html=1;pointerEvents=1;dashed=0;fillColor=#036897;strokeColor=#ffffff;strokeWidth=2;verticalLabelPosition=bottom;verticalAlign=top;align=center;outlineConnect=0;" parent="1" vertex="1">
          <mxGeometry x="-208" y="310" width="101" height="50" as="geometry" />
        </mxCell>
        <mxCell id="g66wI6sif0jjf1UmDSFJ-12" value="Business Consultants&lt;div&gt;Floor 3&amp;nbsp;&lt;/div&gt;&lt;div&gt;(27)&lt;/div&gt;" style="text;html=1;align=center;verticalAlign=middle;whiteSpace=wrap;rounded=0;" parent="1" vertex="1">
          <mxGeometry x="-240" y="490" width="121" height="40" as="geometry" />
        </mxCell>
        <mxCell id="g66wI6sif0jjf1UmDSFJ-13" value="" style="endArrow=none;html=1;rounded=0;exitX=0.5;exitY=0;exitDx=0;exitDy=0;exitPerimeter=0;entryX=0.5;entryY=0.98;entryDx=0;entryDy=0;entryPerimeter=0;" parent="1" source="g66wI6sif0jjf1UmDSFJ-10" target="g66wI6sif0jjf1UmDSFJ-11" edge="1">
          <mxGeometry width="50" height="50" relative="1" as="geometry">
            <mxPoint x="-27" y="380" as="sourcePoint" />
            <mxPoint x="23" y="330" as="targetPoint" />
          </mxGeometry>
        </mxCell>
        <mxCell id="g66wI6sif0jjf1UmDSFJ-14" value="" style="shape=mxgraph.cisco.computers_and_peripherals.pc;sketch=0;html=1;pointerEvents=1;dashed=0;fillColor=#036897;strokeColor=#ffffff;strokeWidth=2;verticalLabelPosition=bottom;verticalAlign=top;align=center;outlineConnect=0;" parent="1" vertex="1">
          <mxGeometry x="1121.5" y="425" width="78" height="70" as="geometry" />
        </mxCell>
        <mxCell id="s2B2YG-71K-emKwGEbhx-19" style="edgeStyle=orthogonalEdgeStyle;rounded=0;orthogonalLoop=1;jettySize=auto;html=1;" parent="1" source="g66wI6sif0jjf1UmDSFJ-15" target="BXiqwRlGKzKQuI-ZINDh-93" edge="1">
          <mxGeometry relative="1" as="geometry">
            <Array as="points">
              <mxPoint x="1140" y="190" />
              <mxPoint x="810" y="190" />
            </Array>
          </mxGeometry>
        </mxCell>
        <mxCell id="g66wI6sif0jjf1UmDSFJ-15" value="" style="shape=mxgraph.cisco.switches.workgroup_switch;sketch=0;html=1;pointerEvents=1;dashed=0;fillColor=#036897;strokeColor=#ffffff;strokeWidth=2;verticalLabelPosition=bottom;verticalAlign=top;align=center;outlineConnect=0;" parent="1" vertex="1">
          <mxGeometry x="1110" y="300" width="101" height="50" as="geometry" />
        </mxCell>
        <mxCell id="g66wI6sif0jjf1UmDSFJ-16" value="Research&amp;amp;Analysis&lt;div&gt;Floor 5&lt;/div&gt;&lt;div&gt;(12)&lt;/div&gt;" style="text;html=1;align=center;verticalAlign=middle;whiteSpace=wrap;rounded=0;" parent="1" vertex="1">
          <mxGeometry x="1115" y="515" width="91" height="40" as="geometry" />
        </mxCell>
        <mxCell id="g66wI6sif0jjf1UmDSFJ-17" value="" style="endArrow=none;html=1;rounded=0;" parent="1" source="g66wI6sif0jjf1UmDSFJ-14" target="g66wI6sif0jjf1UmDSFJ-15" edge="1">
          <mxGeometry width="50" height="50" relative="1" as="geometry">
            <mxPoint x="1111.5" y="425" as="sourcePoint" />
            <mxPoint x="1161.5" y="375" as="targetPoint" />
          </mxGeometry>
        </mxCell>
        <mxCell id="g66wI6sif0jjf1UmDSFJ-26" value="2531" style="text;html=1;align=center;verticalAlign=middle;whiteSpace=wrap;rounded=0;" parent="1" vertex="1">
          <mxGeometry x="-205.5" y="175.25" width="60" height="30" as="geometry" />
        </mxCell>
        <mxCell id="g66wI6sif0jjf1UmDSFJ-27" value="3187" style="text;html=1;align=center;verticalAlign=middle;whiteSpace=wrap;rounded=0;" parent="1" vertex="1">
          <mxGeometry x="-81" y="165.75" width="60" height="30" as="geometry" />
        </mxCell>
        <mxCell id="g66wI6sif0jjf1UmDSFJ-28" value="1217" style="text;html=1;align=center;verticalAlign=middle;whiteSpace=wrap;rounded=0;" parent="1" vertex="1">
          <mxGeometry x="-670" y="118.5" width="60" height="30" as="geometry" />
        </mxCell>
        <mxCell id="g66wI6sif0jjf1UmDSFJ-34" value="684" style="text;html=1;align=center;verticalAlign=middle;whiteSpace=wrap;rounded=0;" parent="1" vertex="1">
          <mxGeometry x="-550" y="130.25" width="60" height="30" as="geometry" />
        </mxCell>
        <mxCell id="g66wI6sif0jjf1UmDSFJ-35" value="2511" style="text;html=1;align=center;verticalAlign=middle;whiteSpace=wrap;rounded=0;" parent="1" vertex="1">
          <mxGeometry x="730" y="210" width="60" height="30" as="geometry" />
        </mxCell>
        <mxCell id="g66wI6sif0jjf1UmDSFJ-36" value="697" style="text;html=1;align=center;verticalAlign=middle;whiteSpace=wrap;rounded=0;" parent="1" vertex="1">
          <mxGeometry x="867" y="209.5" width="60" height="25.75" as="geometry" />
        </mxCell>
        <mxCell id="g66wI6sif0jjf1UmDSFJ-37" value="436" style="text;html=1;align=center;verticalAlign=middle;whiteSpace=wrap;rounded=0;" parent="1" vertex="1">
          <mxGeometry x="990" y="200.25" width="45" height="19.5" as="geometry" />
        </mxCell>
        <mxCell id="g66wI6sif0jjf1UmDSFJ-38" value="1307" style="text;html=1;align=center;verticalAlign=middle;whiteSpace=wrap;rounded=0;" parent="1" vertex="1">
          <mxGeometry x="1086" y="190.75" width="60" height="25" as="geometry" />
        </mxCell>
        <mxCell id="D1z5Sd_cmgpTsEMFyd4e-1" value="" style="shape=mxgraph.cisco.servers.fileserver;sketch=0;html=1;pointerEvents=1;dashed=0;fillColor=#036897;strokeColor=#ffffff;strokeWidth=2;verticalLabelPosition=bottom;verticalAlign=top;align=center;outlineConnect=0;" parent="1" vertex="1">
          <mxGeometry x="-323.5" y="-262.75" width="43" height="62" as="geometry" />
        </mxCell>
        <mxCell id="D1z5Sd_cmgpTsEMFyd4e-2" value="" style="shape=mxgraph.cisco.servers.fileserver;sketch=0;html=1;pointerEvents=1;dashed=0;fillColor=#036897;strokeColor=#ffffff;strokeWidth=2;verticalLabelPosition=bottom;verticalAlign=top;align=center;outlineConnect=0;" parent="1" vertex="1">
          <mxGeometry x="-240" y="-262.75" width="43" height="62" as="geometry" />
        </mxCell>
        <mxCell id="D1z5Sd_cmgpTsEMFyd4e-3" value="" style="shape=mxgraph.cisco.servers.fileserver;sketch=0;html=1;pointerEvents=1;dashed=0;fillColor=#036897;strokeColor=#ffffff;strokeWidth=2;verticalLabelPosition=bottom;verticalAlign=top;align=center;outlineConnect=0;" parent="1" vertex="1">
          <mxGeometry x="-154" y="-271.75" width="43" height="62" as="geometry" />
        </mxCell>
        <mxCell id="D1z5Sd_cmgpTsEMFyd4e-4" value="" style="shape=mxgraph.cisco.servers.fileserver;sketch=0;html=1;pointerEvents=1;dashed=0;fillColor=#036897;strokeColor=#ffffff;strokeWidth=2;verticalLabelPosition=bottom;verticalAlign=top;align=center;outlineConnect=0;" parent="1" vertex="1">
          <mxGeometry x="-63" y="-262.75" width="43" height="62" as="geometry" />
        </mxCell>
        <mxCell id="D1z5Sd_cmgpTsEMFyd4e-5" value="" style="shape=mxgraph.cisco.servers.fileserver;sketch=0;html=1;pointerEvents=1;dashed=0;fillColor=#036897;strokeColor=#ffffff;strokeWidth=2;verticalLabelPosition=bottom;verticalAlign=top;align=center;outlineConnect=0;" parent="1" vertex="1">
          <mxGeometry x="-404" y="-262.75" width="43" height="62" as="geometry" />
        </mxCell>
        <mxCell id="D1z5Sd_cmgpTsEMFyd4e-6" value="" style="shape=mxgraph.cisco.servers.fileserver;sketch=0;html=1;pointerEvents=1;dashed=0;fillColor=#036897;strokeColor=#ffffff;strokeWidth=2;verticalLabelPosition=bottom;verticalAlign=top;align=center;outlineConnect=0;" parent="1" vertex="1">
          <mxGeometry x="-366.5" y="-162.75" width="43" height="62" as="geometry" />
        </mxCell>
        <mxCell id="D1z5Sd_cmgpTsEMFyd4e-7" value="" style="shape=mxgraph.cisco.servers.fileserver;sketch=0;html=1;pointerEvents=1;dashed=0;fillColor=#036897;strokeColor=#ffffff;strokeWidth=2;verticalLabelPosition=bottom;verticalAlign=top;align=center;outlineConnect=0;" parent="1" vertex="1">
          <mxGeometry x="-283" y="-156.75" width="43" height="62" as="geometry" />
        </mxCell>
        <mxCell id="D1z5Sd_cmgpTsEMFyd4e-8" value="" style="shape=mxgraph.cisco.servers.fileserver;sketch=0;html=1;pointerEvents=1;dashed=0;fillColor=#036897;strokeColor=#ffffff;strokeWidth=2;verticalLabelPosition=bottom;verticalAlign=top;align=center;outlineConnect=0;" parent="1" vertex="1">
          <mxGeometry x="-197" y="-162.75" width="43" height="62" as="geometry" />
        </mxCell>
        <mxCell id="D1z5Sd_cmgpTsEMFyd4e-9" value="" style="shape=mxgraph.cisco.servers.fileserver;sketch=0;html=1;pointerEvents=1;dashed=0;fillColor=#036897;strokeColor=#ffffff;strokeWidth=2;verticalLabelPosition=bottom;verticalAlign=top;align=center;outlineConnect=0;" parent="1" vertex="1">
          <mxGeometry x="-95" y="-162.75" width="43" height="62" as="geometry" />
        </mxCell>
        <mxCell id="D1z5Sd_cmgpTsEMFyd4e-11" value="" style="shape=mxgraph.cisco.storage.cloud;sketch=0;html=1;pointerEvents=1;dashed=0;fillColor=#036897;strokeColor=#ffffff;strokeWidth=2;verticalLabelPosition=bottom;verticalAlign=top;align=center;outlineConnect=0;" parent="1" vertex="1">
          <mxGeometry x="763.5" y="-238.75" width="186" height="106" as="geometry" />
        </mxCell>
        <mxCell id="D1z5Sd_cmgpTsEMFyd4e-17" value="E-Mail&lt;div&gt;471&lt;/div&gt;" style="text;html=1;align=center;verticalAlign=middle;whiteSpace=wrap;rounded=0;" parent="1" vertex="1">
          <mxGeometry x="-412.5" y="-322.75" width="60" height="30" as="geometry" />
        </mxCell>
        <mxCell id="D1z5Sd_cmgpTsEMFyd4e-18" value="VOIP/IM&lt;div&gt;237&lt;/div&gt;" style="text;html=1;align=center;verticalAlign=middle;whiteSpace=wrap;rounded=0;" parent="1" vertex="1">
          <mxGeometry x="-332" y="-322.75" width="60" height="30" as="geometry" />
        </mxCell>
        <mxCell id="D1z5Sd_cmgpTsEMFyd4e-19" value="General Internet&lt;div&gt;277&lt;/div&gt;" style="text;html=1;align=center;verticalAlign=middle;whiteSpace=wrap;rounded=0;" parent="1" vertex="1">
          <mxGeometry x="627" y="-222" width="92" height="30" as="geometry" />
        </mxCell>
        <mxCell id="D1z5Sd_cmgpTsEMFyd4e-23" value="Video Conference&lt;div&gt;310&lt;/div&gt;" style="text;html=1;align=center;verticalAlign=middle;whiteSpace=wrap;rounded=0;" parent="1" vertex="1">
          <mxGeometry x="-271.25" y="-322.75" width="105.5" height="30" as="geometry" />
        </mxCell>
        <mxCell id="D1z5Sd_cmgpTsEMFyd4e-24" value="VM Host 1&lt;div&gt;1593&lt;/div&gt;" style="text;html=1;align=center;verticalAlign=middle;whiteSpace=wrap;rounded=0;" parent="1" vertex="1">
          <mxGeometry x="-183.5" y="-322.75" width="105.5" height="30" as="geometry" />
        </mxCell>
        <mxCell id="D1z5Sd_cmgpTsEMFyd4e-25" value="VM Host 2&lt;div&gt;1092&lt;/div&gt;" style="text;html=1;align=center;verticalAlign=middle;whiteSpace=wrap;rounded=0;" parent="1" vertex="1">
          <mxGeometry x="-94.25" y="-322.75" width="105.5" height="30" as="geometry" />
        </mxCell>
        <mxCell id="D1z5Sd_cmgpTsEMFyd4e-26" value="File Server&lt;div&gt;10245&lt;/div&gt;" style="text;html=1;align=center;verticalAlign=middle;whiteSpace=wrap;rounded=0;" parent="1" vertex="1">
          <mxGeometry x="-134.62" y="-77.25" width="122.25" height="30" as="geometry" />
        </mxCell>
        <mxCell id="D1z5Sd_cmgpTsEMFyd4e-27" value="Application Server 1&lt;div&gt;1639&lt;/div&gt;" style="text;html=1;align=center;verticalAlign=middle;whiteSpace=wrap;rounded=0;" parent="1" vertex="1">
          <mxGeometry x="-445.75" y="-100.75" width="122.25" height="30" as="geometry" />
        </mxCell>
        <mxCell id="D1z5Sd_cmgpTsEMFyd4e-28" value="Application Server 2&lt;div&gt;1536&lt;/div&gt;" style="text;html=1;align=center;verticalAlign=middle;whiteSpace=wrap;rounded=0;" parent="1" vertex="1">
          <mxGeometry x="-332" y="-72.75" width="122.25" height="30" as="geometry" />
        </mxCell>
        <mxCell id="D1z5Sd_cmgpTsEMFyd4e-29" value="File Server&lt;div&gt;7800&lt;/div&gt;" style="text;html=1;align=center;verticalAlign=middle;whiteSpace=wrap;rounded=0;" parent="1" vertex="1">
          <mxGeometry x="-240" y="-61.25" width="122.25" height="30" as="geometry" />
        </mxCell>
        <mxCell id="D1z5Sd_cmgpTsEMFyd4e-30" value="" style="endArrow=none;html=1;rounded=0;" parent="1" edge="1">
          <mxGeometry width="50" height="50" relative="1" as="geometry">
            <mxPoint x="-383" y="-182.75" as="sourcePoint" />
            <mxPoint x="217" y="-182.75" as="targetPoint" />
          </mxGeometry>
        </mxCell>
        <mxCell id="D1z5Sd_cmgpTsEMFyd4e-33" value="" style="endArrow=none;html=1;rounded=0;entryX=0.5;entryY=1;entryDx=0;entryDy=0;entryPerimeter=0;" parent="1" target="D1z5Sd_cmgpTsEMFyd4e-5" edge="1">
          <mxGeometry width="50" height="50" relative="1" as="geometry">
            <mxPoint x="-382" y="-182.75" as="sourcePoint" />
            <mxPoint x="-263" y="-202.75" as="targetPoint" />
          </mxGeometry>
        </mxCell>
        <mxCell id="D1z5Sd_cmgpTsEMFyd4e-35" value="" style="endArrow=none;html=1;rounded=0;exitX=0.5;exitY=0;exitDx=0;exitDy=0;exitPerimeter=0;" parent="1" source="D1z5Sd_cmgpTsEMFyd4e-6" edge="1">
          <mxGeometry width="50" height="50" relative="1" as="geometry">
            <mxPoint x="-372" y="-172.75" as="sourcePoint" />
            <mxPoint x="-345" y="-182.75" as="targetPoint" />
          </mxGeometry>
        </mxCell>
        <mxCell id="D1z5Sd_cmgpTsEMFyd4e-36" value="" style="endArrow=none;html=1;rounded=0;entryX=0.5;entryY=1;entryDx=0;entryDy=0;entryPerimeter=0;" parent="1" target="D1z5Sd_cmgpTsEMFyd4e-1" edge="1">
          <mxGeometry width="50" height="50" relative="1" as="geometry">
            <mxPoint x="-302" y="-182.75" as="sourcePoint" />
            <mxPoint x="-362" y="-180.75" as="targetPoint" />
          </mxGeometry>
        </mxCell>
        <mxCell id="D1z5Sd_cmgpTsEMFyd4e-37" value="" style="endArrow=none;html=1;rounded=0;" parent="1" target="D1z5Sd_cmgpTsEMFyd4e-7" edge="1">
          <mxGeometry width="50" height="50" relative="1" as="geometry">
            <mxPoint x="-263" y="-182.75" as="sourcePoint" />
            <mxPoint x="-352" y="-170.75" as="targetPoint" />
          </mxGeometry>
        </mxCell>
        <mxCell id="D1z5Sd_cmgpTsEMFyd4e-38" value="" style="endArrow=none;html=1;rounded=0;entryX=0.5;entryY=1;entryDx=0;entryDy=0;entryPerimeter=0;" parent="1" target="D1z5Sd_cmgpTsEMFyd4e-2" edge="1">
          <mxGeometry width="50" height="50" relative="1" as="geometry">
            <mxPoint x="-219" y="-182.75" as="sourcePoint" />
            <mxPoint x="-342" y="-160.75" as="targetPoint" />
          </mxGeometry>
        </mxCell>
        <mxCell id="D1z5Sd_cmgpTsEMFyd4e-39" value="" style="endArrow=none;html=1;rounded=0;exitX=0.5;exitY=0;exitDx=0;exitDy=0;exitPerimeter=0;" parent="1" source="D1z5Sd_cmgpTsEMFyd4e-8" edge="1">
          <mxGeometry width="50" height="50" relative="1" as="geometry">
            <mxPoint x="-209" y="-172.75" as="sourcePoint" />
            <mxPoint x="-175" y="-182.75" as="targetPoint" />
          </mxGeometry>
        </mxCell>
        <mxCell id="D1z5Sd_cmgpTsEMFyd4e-40" value="" style="endArrow=none;html=1;rounded=0;exitX=0.5;exitY=1;exitDx=0;exitDy=0;exitPerimeter=0;" parent="1" source="D1z5Sd_cmgpTsEMFyd4e-3" edge="1">
          <mxGeometry width="50" height="50" relative="1" as="geometry">
            <mxPoint x="-199" y="-162.75" as="sourcePoint" />
            <mxPoint x="-133" y="-182.75" as="targetPoint" />
          </mxGeometry>
        </mxCell>
        <mxCell id="D1z5Sd_cmgpTsEMFyd4e-41" value="" style="endArrow=none;html=1;rounded=0;entryX=0.5;entryY=0;entryDx=0;entryDy=0;entryPerimeter=0;" parent="1" target="D1z5Sd_cmgpTsEMFyd4e-9" edge="1">
          <mxGeometry width="50" height="50" relative="1" as="geometry">
            <mxPoint x="-73" y="-182.75" as="sourcePoint" />
            <mxPoint x="-189" y="-170.75" as="targetPoint" />
          </mxGeometry>
        </mxCell>
        <mxCell id="D1z5Sd_cmgpTsEMFyd4e-42" value="" style="endArrow=none;html=1;rounded=0;" parent="1" target="D1z5Sd_cmgpTsEMFyd4e-4" edge="1">
          <mxGeometry width="50" height="50" relative="1" as="geometry">
            <mxPoint x="-43" y="-182.75" as="sourcePoint" />
            <mxPoint x="-179" y="-160.75" as="targetPoint" />
            <Array as="points" />
          </mxGeometry>
        </mxCell>
        <mxCell id="D4x98raayPRGnfYNlxmL-1" value="Access Switch&lt;div&gt;(A_)&lt;/div&gt;" style="text;html=1;align=center;verticalAlign=middle;whiteSpace=wrap;rounded=0;fontStyle=1" parent="1" vertex="1">
          <mxGeometry x="-840" y="275" width="60" height="30" as="geometry" />
        </mxCell>
        <mxCell id="D4x98raayPRGnfYNlxmL-6" value="&lt;b&gt;Distribution Switch&lt;/b&gt;&lt;div&gt;&lt;b&gt;&lt;font style=&quot;font-size: 14px;&quot;&gt;(D_)&lt;/font&gt;&lt;/b&gt;&lt;/div&gt;" style="text;html=1;align=center;verticalAlign=middle;whiteSpace=wrap;rounded=0;" parent="1" vertex="1">
          <mxGeometry x="-872.5" y="50" width="125" height="30" as="geometry" />
        </mxCell>
        <mxCell id="D4x98raayPRGnfYNlxmL-7" value="&lt;font style=&quot;font-size: 20px;&quot;&gt;&lt;b&gt;D1&lt;/b&gt;&lt;/font&gt;" style="text;html=1;align=center;verticalAlign=middle;whiteSpace=wrap;rounded=0;" parent="1" vertex="1">
          <mxGeometry x="-320" y="70" width="60" height="30" as="geometry" />
        </mxCell>
        <mxCell id="D4x98raayPRGnfYNlxmL-8" value="&lt;b&gt;&lt;font style=&quot;font-size: 20px;&quot;&gt;D2&lt;/font&gt;&lt;/b&gt;" style="text;html=1;align=center;verticalAlign=middle;whiteSpace=wrap;rounded=0;" parent="1" vertex="1">
          <mxGeometry x="756" y="60" width="60" height="30" as="geometry" />
        </mxCell>
        <mxCell id="wjn0DkEPhm9HMvxcZybD-29" style="edgeStyle=orthogonalEdgeStyle;rounded=0;orthogonalLoop=1;jettySize=auto;html=1;" parent="1" source="D4x98raayPRGnfYNlxmL-10" target="wjn0DkEPhm9HMvxcZybD-24" edge="1">
          <mxGeometry relative="1" as="geometry" />
        </mxCell>
        <mxCell id="D4x98raayPRGnfYNlxmL-10" value="" style="shape=mxgraph.cisco.routers.wireless_router;html=1;pointerEvents=1;dashed=0;fillColor=#036897;strokeColor=#ffffff;strokeWidth=2;verticalLabelPosition=bottom;verticalAlign=top;align=center;outlineConnect=0;" parent="1" vertex="1">
          <mxGeometry x="1570" y="-166.25" width="78" height="77" as="geometry" />
        </mxCell>
        <mxCell id="wjn0DkEPhm9HMvxcZybD-28" style="edgeStyle=orthogonalEdgeStyle;rounded=0;orthogonalLoop=1;jettySize=auto;html=1;" parent="1" source="D4x98raayPRGnfYNlxmL-14" target="wjn0DkEPhm9HMvxcZybD-23" edge="1">
          <mxGeometry relative="1" as="geometry">
            <Array as="points">
              <mxPoint x="1560" y="-216" />
              <mxPoint x="1560" y="-216" />
            </Array>
          </mxGeometry>
        </mxCell>
        <mxCell id="D4x98raayPRGnfYNlxmL-14" value="" style="shape=mxgraph.cisco.routers.wireless_router;html=1;pointerEvents=1;dashed=0;fillColor=#036897;strokeColor=#ffffff;strokeWidth=2;verticalLabelPosition=bottom;verticalAlign=top;align=center;outlineConnect=0;" parent="1" vertex="1">
          <mxGeometry x="1570" y="-261.25" width="78" height="77" as="geometry" />
        </mxCell>
        <mxCell id="D4x98raayPRGnfYNlxmL-15" value="" style="shape=mxgraph.cisco.routers.wireless_router;html=1;pointerEvents=1;dashed=0;fillColor=#036897;strokeColor=#ffffff;strokeWidth=2;verticalLabelPosition=bottom;verticalAlign=top;align=center;outlineConnect=0;" parent="1" vertex="1">
          <mxGeometry x="1570" y="-69" width="78" height="77" as="geometry" />
        </mxCell>
        <mxCell id="D4x98raayPRGnfYNlxmL-16" value="" style="shape=mxgraph.cisco.routers.wireless_router;html=1;pointerEvents=1;dashed=0;fillColor=#036897;strokeColor=#ffffff;strokeWidth=2;verticalLabelPosition=bottom;verticalAlign=top;align=center;outlineConnect=0;" parent="1" vertex="1">
          <mxGeometry x="1570" y="44.5" width="78" height="77" as="geometry" />
        </mxCell>
        <mxCell id="D4x98raayPRGnfYNlxmL-18" value="OPTIONAL:&lt;div&gt;Lightweight Access Point&lt;/div&gt;&lt;div&gt;(1 Per Floor)&lt;/div&gt;" style="text;html=1;align=center;verticalAlign=middle;whiteSpace=wrap;rounded=0;" parent="1" vertex="1">
          <mxGeometry x="1534.5" y="-412" width="149" height="30" as="geometry" />
        </mxCell>
        <mxCell id="wjn0DkEPhm9HMvxcZybD-27" style="edgeStyle=orthogonalEdgeStyle;rounded=0;orthogonalLoop=1;jettySize=auto;html=1;" parent="1" source="D4x98raayPRGnfYNlxmL-27" target="wjn0DkEPhm9HMvxcZybD-22" edge="1">
          <mxGeometry relative="1" as="geometry" />
        </mxCell>
        <mxCell id="D4x98raayPRGnfYNlxmL-27" value="" style="shape=mxgraph.cisco.routers.wireless_router;html=1;pointerEvents=1;dashed=0;fillColor=#036897;strokeColor=#ffffff;strokeWidth=2;verticalLabelPosition=bottom;verticalAlign=top;align=center;outlineConnect=0;" parent="1" vertex="1">
          <mxGeometry x="1570" y="-338.25" width="78" height="77" as="geometry" />
        </mxCell>
        <mxCell id="D4x98raayPRGnfYNlxmL-29" value="&lt;b&gt;LAP1&lt;/b&gt;" style="text;html=1;align=center;verticalAlign=middle;whiteSpace=wrap;rounded=0;" parent="1" vertex="1">
          <mxGeometry x="1640" y="-301.75" width="60" height="30" as="geometry" />
        </mxCell>
        <mxCell id="D4x98raayPRGnfYNlxmL-30" value="&lt;b&gt;LAP2&lt;/b&gt;" style="text;html=1;align=center;verticalAlign=middle;whiteSpace=wrap;rounded=0;" parent="1" vertex="1">
          <mxGeometry x="1640" y="-220.75" width="60" height="30" as="geometry" />
        </mxCell>
        <mxCell id="D4x98raayPRGnfYNlxmL-31" value="&lt;b&gt;LAP3&lt;/b&gt;" style="text;html=1;align=center;verticalAlign=middle;whiteSpace=wrap;rounded=0;" parent="1" vertex="1">
          <mxGeometry x="1640" y="-127.75" width="60" height="30" as="geometry" />
        </mxCell>
        <mxCell id="D4x98raayPRGnfYNlxmL-32" value="&lt;b&gt;LAP4&lt;/b&gt;" style="text;html=1;align=center;verticalAlign=middle;whiteSpace=wrap;rounded=0;" parent="1" vertex="1">
          <mxGeometry x="1640" y="-30" width="60" height="30" as="geometry" />
        </mxCell>
        <mxCell id="D4x98raayPRGnfYNlxmL-33" value="&lt;b&gt;LAP5&lt;/b&gt;" style="text;html=1;align=center;verticalAlign=middle;whiteSpace=wrap;rounded=0;" parent="1" vertex="1">
          <mxGeometry x="1640" y="84" width="60" height="30" as="geometry" />
        </mxCell>
        <mxCell id="D4x98raayPRGnfYNlxmL-64" value="Core Switch&lt;div&gt;(C_)&lt;/div&gt;" style="text;html=1;align=center;verticalAlign=middle;whiteSpace=wrap;rounded=0;" parent="1" vertex="1">
          <mxGeometry x="197" y="-312.75" width="105" height="30" as="geometry" />
        </mxCell>
        <mxCell id="D4x98raayPRGnfYNlxmL-65" value="&lt;font style=&quot;font-size: 20px;&quot;&gt;&lt;b&gt;C1&lt;/b&gt;&lt;/font&gt;" style="text;html=1;align=center;verticalAlign=middle;whiteSpace=wrap;rounded=0;" parent="1" vertex="1">
          <mxGeometry x="197" y="-246.75" width="60" height="30" as="geometry" />
        </mxCell>
        <mxCell id="D4x98raayPRGnfYNlxmL-66" value="Enterprise Servers" style="text;html=1;align=center;verticalAlign=middle;whiteSpace=wrap;rounded=0;" parent="1" vertex="1">
          <mxGeometry x="-587" y="-200.75" width="119" height="30" as="geometry" />
        </mxCell>
        <mxCell id="D4x98raayPRGnfYNlxmL-68" value="Open Internet" style="text;html=1;align=center;verticalAlign=middle;whiteSpace=wrap;rounded=0;" parent="1" vertex="1">
          <mxGeometry x="816" y="-259.75" width="80" height="30" as="geometry" />
        </mxCell>
        <mxCell id="HvBumtQWwmfjn8_mG1BW-1" value="" style="shape=mxgraph.cisco.routers.router;html=1;pointerEvents=1;dashed=0;fillColor=#036897;strokeColor=#ffffff;strokeWidth=2;verticalLabelPosition=bottom;verticalAlign=top;align=center;outlineConnect=0;" parent="1" vertex="1">
          <mxGeometry x="487" y="-209.75" width="78" height="53" as="geometry" />
        </mxCell>
        <mxCell id="HvBumtQWwmfjn8_mG1BW-2" style="edgeStyle=none;curved=1;rounded=0;orthogonalLoop=1;jettySize=auto;html=1;entryX=1;entryY=0.5;entryDx=0;entryDy=0;entryPerimeter=0;fontSize=12;startSize=8;endSize=8;" parent="1" source="HvBumtQWwmfjn8_mG1BW-1" edge="1">
          <mxGeometry relative="1" as="geometry">
            <mxPoint x="293" y="-183.25" as="targetPoint" />
          </mxGeometry>
        </mxCell>
        <mxCell id="HvBumtQWwmfjn8_mG1BW-3" style="edgeStyle=none;curved=1;rounded=0;orthogonalLoop=1;jettySize=auto;html=1;entryX=1;entryY=0.5;entryDx=0;entryDy=0;entryPerimeter=0;fontSize=12;startSize=8;endSize=8;" parent="1" source="D1z5Sd_cmgpTsEMFyd4e-11" target="HvBumtQWwmfjn8_mG1BW-1" edge="1">
          <mxGeometry relative="1" as="geometry" />
        </mxCell>
        <mxCell id="HvBumtQWwmfjn8_mG1BW-4" value="Firewall" style="text;html=1;align=center;verticalAlign=middle;whiteSpace=wrap;rounded=0;fontSize=16;" parent="1" vertex="1">
          <mxGeometry x="463" y="-246.75" width="128" height="30" as="geometry" />
        </mxCell>
        <mxCell id="wjn0DkEPhm9HMvxcZybD-1" value="&lt;font style=&quot;font-size: 19px;&quot;&gt;&lt;b&gt;F1&lt;/b&gt;&lt;/font&gt;" style="text;html=1;align=center;verticalAlign=middle;whiteSpace=wrap;rounded=0;" parent="1" vertex="1">
          <mxGeometry x="496" y="-153.25" width="60" height="30" as="geometry" />
        </mxCell>
        <mxCell id="wjn0DkEPhm9HMvxcZybD-2" value="&lt;b&gt;&lt;font style=&quot;font-size: 18px;&quot;&gt;A1&lt;/font&gt;&lt;/b&gt;" style="text;html=1;align=center;verticalAlign=middle;whiteSpace=wrap;rounded=0;" parent="1" vertex="1">
          <mxGeometry x="350" y="258.75" width="60" height="30" as="geometry" />
        </mxCell>
        <mxCell id="wjn0DkEPhm9HMvxcZybD-3" value="&lt;b&gt;&lt;font style=&quot;font-size: 18px;&quot;&gt;A2&lt;/font&gt;&lt;/b&gt;" style="text;html=1;align=center;verticalAlign=middle;whiteSpace=wrap;rounded=0;" parent="1" vertex="1">
          <mxGeometry x="473.5" y="258.75" width="60" height="30" as="geometry" />
        </mxCell>
        <mxCell id="wjn0DkEPhm9HMvxcZybD-4" value="&lt;b&gt;&lt;font style=&quot;font-size: 18px;&quot;&gt;A3&lt;/font&gt;&lt;/b&gt;" style="text;html=1;align=center;verticalAlign=middle;whiteSpace=wrap;rounded=0;" parent="1" vertex="1">
          <mxGeometry x="-718" y="293.75" width="60" height="30" as="geometry" />
        </mxCell>
        <mxCell id="s2B2YG-71K-emKwGEbhx-3" style="edgeStyle=orthogonalEdgeStyle;rounded=0;orthogonalLoop=1;jettySize=auto;html=1;exitX=1;exitY=1;exitDx=0;exitDy=0;" parent="1" source="wjn0DkEPhm9HMvxcZybD-5" target="BXiqwRlGKzKQuI-ZINDh-29" edge="1">
          <mxGeometry relative="1" as="geometry">
            <Array as="points">
              <mxPoint x="-541" y="325" />
              <mxPoint x="-541" y="336" />
              <mxPoint x="-540" y="336" />
              <mxPoint x="-540" y="130" />
            </Array>
          </mxGeometry>
        </mxCell>
        <mxCell id="wjn0DkEPhm9HMvxcZybD-5" value="&lt;b&gt;&lt;font style=&quot;font-size: 18px;&quot;&gt;A4&lt;/font&gt;&lt;/b&gt;" style="text;html=1;align=center;verticalAlign=middle;whiteSpace=wrap;rounded=0;" parent="1" vertex="1">
          <mxGeometry x="-592" y="295" width="60" height="30" as="geometry" />
        </mxCell>
        <mxCell id="wjn0DkEPhm9HMvxcZybD-6" value="&lt;b&gt;&lt;font style=&quot;font-size: 18px;&quot;&gt;A5&lt;/font&gt;&lt;/b&gt;" style="text;html=1;align=center;verticalAlign=middle;whiteSpace=wrap;rounded=0;" parent="1" vertex="1">
          <mxGeometry x="597" y="255" width="60" height="30" as="geometry" />
        </mxCell>
        <mxCell id="wjn0DkEPhm9HMvxcZybD-7" value="&lt;b&gt;&lt;font style=&quot;font-size: 18px;&quot;&gt;A6&lt;/font&gt;&lt;/b&gt;" style="text;html=1;align=center;verticalAlign=middle;whiteSpace=wrap;rounded=0;" parent="1" vertex="1">
          <mxGeometry x="730" y="255" width="60" height="30" as="geometry" />
        </mxCell>
        <mxCell id="wjn0DkEPhm9HMvxcZybD-8" value="&lt;b&gt;&lt;font style=&quot;font-size: 18px;&quot;&gt;A7&lt;/font&gt;&lt;/b&gt;" style="text;html=1;align=center;verticalAlign=middle;whiteSpace=wrap;rounded=0;" parent="1" vertex="1">
          <mxGeometry x="862" y="255" width="60" height="30" as="geometry" />
        </mxCell>
        <mxCell id="wjn0DkEPhm9HMvxcZybD-9" value="&lt;b&gt;&lt;font style=&quot;font-size: 18px;&quot;&gt;A8&lt;/font&gt;&lt;/b&gt;" style="text;html=1;align=center;verticalAlign=middle;whiteSpace=wrap;rounded=0;" parent="1" vertex="1">
          <mxGeometry x="-472.5" y="285" width="60" height="30" as="geometry" />
        </mxCell>
        <mxCell id="wjn0DkEPhm9HMvxcZybD-10" value="&lt;b&gt;&lt;font style=&quot;font-size: 18px;&quot;&gt;A9&lt;/font&gt;&lt;/b&gt;" style="text;html=1;align=center;verticalAlign=middle;whiteSpace=wrap;rounded=0;" parent="1" vertex="1">
          <mxGeometry x="-340" y="285" width="60" height="30" as="geometry" />
        </mxCell>
        <mxCell id="wjn0DkEPhm9HMvxcZybD-12" value="&lt;b&gt;&lt;font style=&quot;font-size: 18px;&quot;&gt;A10&lt;/font&gt;&lt;/b&gt;" style="text;html=1;align=center;verticalAlign=middle;whiteSpace=wrap;rounded=0;" parent="1" vertex="1">
          <mxGeometry x="-214" y="275" width="60" height="30" as="geometry" />
        </mxCell>
        <mxCell id="wjn0DkEPhm9HMvxcZybD-13" value="&lt;b&gt;&lt;font style=&quot;font-size: 18px;&quot;&gt;A11&lt;/font&gt;&lt;/b&gt;" style="text;html=1;align=center;verticalAlign=middle;whiteSpace=wrap;rounded=0;" parent="1" vertex="1">
          <mxGeometry x="-90" y="275.75" width="60" height="30" as="geometry" />
        </mxCell>
        <mxCell id="wjn0DkEPhm9HMvxcZybD-14" value="&lt;b&gt;&lt;font style=&quot;font-size: 18px;&quot;&gt;A12&lt;/font&gt;&lt;/b&gt;" style="text;html=1;align=center;verticalAlign=middle;whiteSpace=wrap;rounded=0;" parent="1" vertex="1">
          <mxGeometry x="28" y="269.5" width="60" height="30" as="geometry" />
        </mxCell>
        <mxCell id="wjn0DkEPhm9HMvxcZybD-15" value="&lt;b&gt;&lt;font style=&quot;font-size: 18px;&quot;&gt;A13&lt;/font&gt;&lt;/b&gt;" style="text;html=1;align=center;verticalAlign=middle;whiteSpace=wrap;rounded=0;" parent="1" vertex="1">
          <mxGeometry x="980" y="265" width="60" height="30" as="geometry" />
        </mxCell>
        <mxCell id="wjn0DkEPhm9HMvxcZybD-16" value="&lt;b&gt;&lt;font style=&quot;font-size: 18px;&quot;&gt;A14&lt;/font&gt;&lt;/b&gt;" style="text;html=1;align=center;verticalAlign=middle;whiteSpace=wrap;rounded=0;" parent="1" vertex="1">
          <mxGeometry x="1090" y="258.75" width="60" height="30" as="geometry" />
        </mxCell>
        <mxCell id="wjn0DkEPhm9HMvxcZybD-17" value="&lt;b&gt;&lt;font style=&quot;font-size: 18px;&quot;&gt;A15&lt;/font&gt;&lt;/b&gt;" style="text;html=1;align=center;verticalAlign=middle;whiteSpace=wrap;rounded=0;" parent="1" vertex="1">
          <mxGeometry x="1225" y="269.5" width="60" height="30" as="geometry" />
        </mxCell>
        <mxCell id="wjn0DkEPhm9HMvxcZybD-18" value="&lt;b&gt;&lt;font style=&quot;font-size: 18px;&quot;&gt;A16&lt;/font&gt;&lt;/b&gt;" style="text;html=1;align=center;verticalAlign=middle;whiteSpace=wrap;rounded=0;" parent="1" vertex="1">
          <mxGeometry x="1350" y="265" width="60" height="30" as="geometry" />
        </mxCell>
        <mxCell id="wjn0DkEPhm9HMvxcZybD-19" value="" style="shape=mxgraph.cisco.wireless.wlan_controller;sketch=0;html=1;pointerEvents=1;dashed=0;fillColor=#036897;strokeColor=#ffffff;strokeWidth=2;verticalLabelPosition=bottom;verticalAlign=top;align=center;outlineConnect=0;" parent="1" vertex="1">
          <mxGeometry x="410" y="-98.75" width="101" height="56" as="geometry" />
        </mxCell>
        <mxCell id="wjn0DkEPhm9HMvxcZybD-20" style="edgeStyle=orthogonalEdgeStyle;rounded=0;orthogonalLoop=1;jettySize=auto;html=1;entryX=0.95;entryY=0.94;entryDx=0;entryDy=0;entryPerimeter=0;" parent="1" source="wjn0DkEPhm9HMvxcZybD-19" target="BXiqwRlGKzKQuI-ZINDh-128" edge="1">
          <mxGeometry relative="1" as="geometry" />
        </mxCell>
        <mxCell id="wjn0DkEPhm9HMvxcZybD-21" value="OPTIONAL:&lt;div&gt;Wireless Lan Controller&lt;/div&gt;&lt;div&gt;&lt;font style=&quot;font-size: 18px;&quot;&gt;&lt;b&gt;WLC1&lt;/b&gt;&lt;/font&gt;&lt;/div&gt;" style="text;html=1;align=center;verticalAlign=middle;whiteSpace=wrap;rounded=0;" parent="1" vertex="1">
          <mxGeometry x="511" y="-77.25" width="142" height="30" as="geometry" />
        </mxCell>
        <mxCell id="wjn0DkEPhm9HMvxcZybD-22" value="" style="shape=mxgraph.cisco.switches.workgroup_switch;sketch=0;html=1;pointerEvents=1;dashed=0;fillColor=#036897;strokeColor=#ffffff;strokeWidth=2;verticalLabelPosition=bottom;verticalAlign=top;align=center;outlineConnect=0;" parent="1" vertex="1">
          <mxGeometry x="1440" y="-324.75" width="101" height="50" as="geometry" />
        </mxCell>
        <mxCell id="wjn0DkEPhm9HMvxcZybD-36" style="edgeStyle=orthogonalEdgeStyle;rounded=0;orthogonalLoop=1;jettySize=auto;html=1;" parent="1" source="wjn0DkEPhm9HMvxcZybD-23" target="BXiqwRlGKzKQuI-ZINDh-93" edge="1">
          <mxGeometry relative="1" as="geometry">
            <Array as="points">
              <mxPoint x="1491" y="-180" />
              <mxPoint x="1400" y="-180" />
              <mxPoint x="1400" y="110" />
            </Array>
          </mxGeometry>
        </mxCell>
        <mxCell id="wjn0DkEPhm9HMvxcZybD-23" value="" style="shape=mxgraph.cisco.switches.workgroup_switch;sketch=0;html=1;pointerEvents=1;dashed=0;fillColor=#036897;strokeColor=#ffffff;strokeWidth=2;verticalLabelPosition=bottom;verticalAlign=top;align=center;outlineConnect=0;" parent="1" vertex="1">
          <mxGeometry x="1440" y="-240.75" width="101" height="50" as="geometry" />
        </mxCell>
        <mxCell id="wjn0DkEPhm9HMvxcZybD-35" style="edgeStyle=orthogonalEdgeStyle;rounded=0;orthogonalLoop=1;jettySize=auto;html=1;" parent="1" source="wjn0DkEPhm9HMvxcZybD-24" target="BXiqwRlGKzKQuI-ZINDh-93" edge="1">
          <mxGeometry relative="1" as="geometry">
            <Array as="points">
              <mxPoint x="1491" y="-90" />
              <mxPoint x="1410" y="-90" />
              <mxPoint x="1410" y="120" />
            </Array>
          </mxGeometry>
        </mxCell>
        <mxCell id="wjn0DkEPhm9HMvxcZybD-24" value="" style="shape=mxgraph.cisco.switches.workgroup_switch;sketch=0;html=1;pointerEvents=1;dashed=0;fillColor=#036897;strokeColor=#ffffff;strokeWidth=2;verticalLabelPosition=bottom;verticalAlign=top;align=center;outlineConnect=0;" parent="1" vertex="1">
          <mxGeometry x="1440" y="-153.25" width="101" height="50" as="geometry" />
        </mxCell>
        <mxCell id="wjn0DkEPhm9HMvxcZybD-34" style="edgeStyle=orthogonalEdgeStyle;rounded=0;orthogonalLoop=1;jettySize=auto;html=1;" parent="1" source="wjn0DkEPhm9HMvxcZybD-25" target="BXiqwRlGKzKQuI-ZINDh-93" edge="1">
          <mxGeometry relative="1" as="geometry">
            <Array as="points">
              <mxPoint x="1420" y="12" />
              <mxPoint x="1420" y="130" />
            </Array>
          </mxGeometry>
        </mxCell>
        <mxCell id="wjn0DkEPhm9HMvxcZybD-25" value="" style="shape=mxgraph.cisco.switches.workgroup_switch;sketch=0;html=1;pointerEvents=1;dashed=0;fillColor=#036897;strokeColor=#ffffff;strokeWidth=2;verticalLabelPosition=bottom;verticalAlign=top;align=center;outlineConnect=0;" parent="1" vertex="1">
          <mxGeometry x="1440" y="-55.5" width="101" height="50" as="geometry" />
        </mxCell>
        <mxCell id="wjn0DkEPhm9HMvxcZybD-33" style="edgeStyle=orthogonalEdgeStyle;rounded=0;orthogonalLoop=1;jettySize=auto;html=1;" parent="1" source="wjn0DkEPhm9HMvxcZybD-26" target="BXiqwRlGKzKQuI-ZINDh-93" edge="1">
          <mxGeometry relative="1" as="geometry">
            <Array as="points">
              <mxPoint x="890" y="140" />
              <mxPoint x="890" y="140" />
            </Array>
          </mxGeometry>
        </mxCell>
        <mxCell id="wjn0DkEPhm9HMvxcZybD-26" value="" style="shape=mxgraph.cisco.switches.workgroup_switch;sketch=0;html=1;pointerEvents=1;dashed=0;fillColor=#036897;strokeColor=#ffffff;strokeWidth=2;verticalLabelPosition=bottom;verticalAlign=top;align=center;outlineConnect=0;" parent="1" vertex="1">
          <mxGeometry x="1440" y="58" width="101" height="50" as="geometry" />
        </mxCell>
        <mxCell id="wjn0DkEPhm9HMvxcZybD-30" style="edgeStyle=orthogonalEdgeStyle;rounded=0;orthogonalLoop=1;jettySize=auto;html=1;entryX=0.98;entryY=0.5;entryDx=0;entryDy=0;entryPerimeter=0;" parent="1" source="D4x98raayPRGnfYNlxmL-15" target="wjn0DkEPhm9HMvxcZybD-25" edge="1">
          <mxGeometry relative="1" as="geometry" />
        </mxCell>
        <mxCell id="wjn0DkEPhm9HMvxcZybD-31" style="edgeStyle=orthogonalEdgeStyle;rounded=0;orthogonalLoop=1;jettySize=auto;html=1;entryX=0.98;entryY=0.5;entryDx=0;entryDy=0;entryPerimeter=0;" parent="1" source="D4x98raayPRGnfYNlxmL-16" target="wjn0DkEPhm9HMvxcZybD-26" edge="1">
          <mxGeometry relative="1" as="geometry" />
        </mxCell>
        <mxCell id="wjn0DkEPhm9HMvxcZybD-37" style="edgeStyle=orthogonalEdgeStyle;rounded=0;orthogonalLoop=1;jettySize=auto;html=1;entryX=1;entryY=0;entryDx=0;entryDy=0;entryPerimeter=0;" parent="1" source="wjn0DkEPhm9HMvxcZybD-22" target="BXiqwRlGKzKQuI-ZINDh-93" edge="1">
          <mxGeometry relative="1" as="geometry">
            <Array as="points">
              <mxPoint x="1491" y="-260" />
              <mxPoint x="1390" y="-260" />
              <mxPoint x="1390" y="100" />
            </Array>
          </mxGeometry>
        </mxCell>
        <mxCell id="wjn0DkEPhm9HMvxcZybD-38" value="OPTIONAL:&lt;div&gt;Wireless Lan&lt;/div&gt;" style="text;html=1;align=center;verticalAlign=middle;whiteSpace=wrap;rounded=0;" parent="1" vertex="1">
          <mxGeometry x="1181" y="-86" width="169" height="30" as="geometry" />
        </mxCell>
        <mxCell id="s2B2YG-71K-emKwGEbhx-9" style="edgeStyle=orthogonalEdgeStyle;rounded=0;orthogonalLoop=1;jettySize=auto;html=1;" parent="1" source="BXiqwRlGKzKQuI-ZINDh-14" target="BXiqwRlGKzKQuI-ZINDh-29" edge="1">
          <mxGeometry relative="1" as="geometry">
            <Array as="points">
              <mxPoint x="-30" y="170" />
              <mxPoint x="-250" y="170" />
            </Array>
          </mxGeometry>
        </mxCell>
        <mxCell id="s2B2YG-71K-emKwGEbhx-14" style="edgeStyle=orthogonalEdgeStyle;rounded=0;orthogonalLoop=1;jettySize=auto;html=1;entryX=0;entryY=0.98;entryDx=0;entryDy=0;entryPerimeter=0;" parent="1" source="BXiqwRlGKzKQuI-ZINDh-77" edge="1" target="BXiqwRlGKzKQuI-ZINDh-93">
          <mxGeometry relative="1" as="geometry">
            <mxPoint x="790" y="149" as="targetPoint" />
            <Array as="points">
              <mxPoint x="653" y="149" />
            </Array>
          </mxGeometry>
        </mxCell>
        <mxCell id="s2B2YG-71K-emKwGEbhx-20" style="edgeStyle=orthogonalEdgeStyle;rounded=0;orthogonalLoop=1;jettySize=auto;html=1;" parent="1" source="BXiqwRlGKzKQuI-ZINDh-106" target="BXiqwRlGKzKQuI-ZINDh-93" edge="1">
          <mxGeometry relative="1" as="geometry">
            <Array as="points">
              <mxPoint x="1281" y="180" />
              <mxPoint x="820" y="180" />
            </Array>
          </mxGeometry>
        </mxCell>
        <mxCell id="XAYvJO5Y10KyfyyQT-AB-1" value="&lt;b&gt;W1&lt;/b&gt;" style="text;html=1;align=center;verticalAlign=middle;whiteSpace=wrap;rounded=0;" parent="1" vertex="1">
          <mxGeometry x="1451" y="-342" width="60" height="17.25" as="geometry" />
        </mxCell>
        <mxCell id="XAYvJO5Y10KyfyyQT-AB-2" value="&lt;b&gt;W2&lt;/b&gt;" style="text;html=1;align=center;verticalAlign=middle;whiteSpace=wrap;rounded=0;" parent="1" vertex="1">
          <mxGeometry x="1451" y="-262" width="60" height="23.25" as="geometry" />
        </mxCell>
        <mxCell id="XAYvJO5Y10KyfyyQT-AB-3" value="&lt;b&gt;W3&lt;/b&gt;" style="text;html=1;align=center;verticalAlign=middle;whiteSpace=wrap;rounded=0;" parent="1" vertex="1">
          <mxGeometry x="1451" y="-174.5" width="60" height="21.25" as="geometry" />
        </mxCell>
        <mxCell id="XAYvJO5Y10KyfyyQT-AB-4" value="&lt;b&gt;W4&lt;/b&gt;" style="text;html=1;align=center;verticalAlign=middle;whiteSpace=wrap;rounded=0;" parent="1" vertex="1">
          <mxGeometry x="1451" y="-74.25" width="60" height="18.75" as="geometry" />
        </mxCell>
        <mxCell id="XAYvJO5Y10KyfyyQT-AB-5" value="&lt;b&gt;W5&lt;/b&gt;" style="text;html=1;align=center;verticalAlign=middle;whiteSpace=wrap;rounded=0;" parent="1" vertex="1">
          <mxGeometry x="1451" y="40" width="60" height="18" as="geometry" />
        </mxCell>
        <mxCell id="XAYvJO5Y10KyfyyQT-AB-6" value="Subnet ID: 172.20.0.0&#xa;First Host: 172.20.0.1&#xa;Last Host: 172.20.7.254&#xa;Broadcast: 172.20.7.255" style="text;html=1;align=center;verticalAlign=middle;whiteSpace=wrap;rounded=0;" parent="1" vertex="1">
          <mxGeometry x="355" y="590" width="108" height="120" as="geometry" />
        </mxCell>
        <mxCell id="XAYvJO5Y10KyfyyQT-AB-7" value="Subnet ID: 172.20.8.0&#xa;First Host: 172.20.8.1&#xa;Last Host: 172.20.15.254&#xa;Broadcast: 172.20.15.255" style="text;whiteSpace=wrap;" parent="1" vertex="1">
          <mxGeometry x="487" y="590" width="100" height="140" as="geometry" />
        </mxCell>
        <mxCell id="XAYvJO5Y10KyfyyQT-AB-8" value="Subnet ID: 172.20.16.0&#xa;First Host: 172.20.16.1&#xa;Last Host: 172.20.23.254&#xa;Broadcast: 172.20.23.255" style="text;whiteSpace=wrap;" parent="1" vertex="1">
          <mxGeometry x="-709" y="585" width="80" height="130" as="geometry" />
        </mxCell>
        <mxCell id="XAYvJO5Y10KyfyyQT-AB-9" value="Subnet ID: 172.20.24.0&#xa;First Host: 172.20.24.1&#xa;Last Host: 172.20.31.254&#xa;Broadcast: 172.20.31.255" style="text;whiteSpace=wrap;" parent="1" vertex="1">
          <mxGeometry x="-592.5" y="585" width="80" height="125" as="geometry" />
        </mxCell>
        <mxCell id="XAYvJO5Y10KyfyyQT-AB-10" value="Subnet ID: 172.20.32.0&#xa;First Host: 172.20.32.1&#xa;Last Host: 172.20.39.254&#xa;Broadcast: 172.20.39.255" style="text;whiteSpace=wrap;" parent="1" vertex="1">
          <mxGeometry x="607" y="595" width="80" height="120" as="geometry" />
        </mxCell>
        <mxCell id="XAYvJO5Y10KyfyyQT-AB-11" value="Subnet ID: 172.20.40.0&#xa;First Host: 172.20.40.1&#xa;Last Host: 172.20.47.254&#xa;Broadcast: 172.20.47.255" style="text;whiteSpace=wrap;" parent="1" vertex="1">
          <mxGeometry x="742.75" y="595" width="95.5" height="130" as="geometry" />
        </mxCell>
        <mxCell id="XAYvJO5Y10KyfyyQT-AB-12" value="Subnet ID: 172.20.48.0&#xa;First Host: 172.20.48.1&#xa;Last Host: 172.20.55.254&#xa;Broadcast: 172.20.55.255" style="text;whiteSpace=wrap;" parent="1" vertex="1">
          <mxGeometry x="865" y="598.75" width="80" height="122.5" as="geometry" />
        </mxCell>
        <mxCell id="XAYvJO5Y10KyfyyQT-AB-13" value="Subnet ID: 172.20.56.0&#xa;First Host: 172.20.56.1&#xa;Last Host: 172.20.63.254&#xa;Broadcast: 172.20.63.255" style="text;whiteSpace=wrap;" parent="1" vertex="1">
          <mxGeometry x="-463.75" y="580" width="110.5" height="80" as="geometry" />
        </mxCell>
        <mxCell id="XAYvJO5Y10KyfyyQT-AB-14" value="Subnet ID: 172.20.64.0&#xa;First Host: 172.20.64.1&#xa;Last Host: 172.20.71.254&#xa;Broadcast: 172.20.71.255" style="text;whiteSpace=wrap;" parent="1" vertex="1">
          <mxGeometry x="-326.75" y="580" width="113.5" height="80" as="geometry" />
        </mxCell>
        <mxCell id="XAYvJO5Y10KyfyyQT-AB-15" value="Subnet ID: 172.20.72.0&#xa;First Host: 172.20.72.1&#xa;Last Host: 172.20.79.254&#xa;Broadcast: 172.20.79.255" style="text;whiteSpace=wrap;" parent="1" vertex="1">
          <mxGeometry x="-208" y="580" width="104" height="80" as="geometry" />
        </mxCell>
        <mxCell id="XAYvJO5Y10KyfyyQT-AB-16" value="Subnet ID: 172.20.80.0&#xa;First Host: 172.20.80.1&#xa;Last Host: 172.20.87.254&#xa;Broadcast: 172.20.87.255" style="text;whiteSpace=wrap;" parent="1" vertex="1">
          <mxGeometry x="-63" y="580" width="90" height="80" as="geometry" />
        </mxCell>
        <mxCell id="XAYvJO5Y10KyfyyQT-AB-17" value="Subnet ID: 172.20.88.0&#xa;First Host: 172.20.88.1&#xa;Last Host: 172.20.95.254&#xa;Broadcast: 172.20.95.255" style="text;whiteSpace=wrap;" parent="1" vertex="1">
          <mxGeometry x="62" y="576" width="77" height="80" as="geometry" />
        </mxCell>
        <mxCell id="XAYvJO5Y10KyfyyQT-AB-18" value="Subnet ID: 172.20.96.0&#xa;First Host: 172.20.96.1&#xa;Last Host: 172.20.103.254&#xa;Broadcast: 172.20.103.255" style="text;whiteSpace=wrap;" parent="1" vertex="1">
          <mxGeometry x="990" y="598.75" width="80" height="80" as="geometry" />
        </mxCell>
        <mxCell id="XAYvJO5Y10KyfyyQT-AB-19" value="Subnet ID: 172.20.104.0&#xa;First Host: 172.20.104.1&#xa;Last Host: 172.20.111.254&#xa;Broadcast: 172.20.111.255" style="text;whiteSpace=wrap;" parent="1" vertex="1">
          <mxGeometry x="1110.5" y="595" width="80" height="80" as="geometry" />
        </mxCell>
        <mxCell id="XAYvJO5Y10KyfyyQT-AB-20" value="Subnet ID: 172.20.112.0&#xa;First Host: 172.20.112.1&#xa;Last Host: 172.20.119.254&#xa;Broadcast: 172.20.119.255" style="text;whiteSpace=wrap;" parent="1" vertex="1">
          <mxGeometry x="1235" y="598.75" width="104" height="80" as="geometry" />
        </mxCell>
        <mxCell id="XAYvJO5Y10KyfyyQT-AB-21" value="Subnet ID: 172.20.120.0&#xa;First Host: 172.20.120.1&#xa;Last Host: 172.20.127.254&#xa;Broadcast: 172.20.127.255" style="text;whiteSpace=wrap;" parent="1" vertex="1">
          <mxGeometry x="1355" y="615" width="90" height="80" as="geometry" />
        </mxCell>
        <mxCell id="XAYvJO5Y10KyfyyQT-AB-22" value="W1&#xa;Subnet ID: 172.20.128.0&#xa;First Host: 172.20.128.1&#xa;Last Host: 172.20.135.254&#xa;Broadcast: 172.20.135.255&#xa;&#xa;&#xa;W2&#xa;Subnet ID: 172.20.136.0&#xa;First Host: 172.20.136.1&#xa;Last Host: 172.20.143.254&#xa;Broadcast: 172.20.143.255&#xa;&#xa;&#xa;W3&#xa;Subnet ID: 172.20.144.0&#xa;First Host: 172.20.144.1&#xa;Last Host: 172.20.151.254&#xa;Broadcast: 172.20.151.255&#xa;&#xa;&#xa;W4&#xa;Subnet ID: 172.20.152.0&#xa;First Host: 172.20.152.1&#xa;Last Host: 172.20.159.254&#xa;Broadcast: 172.20.159.255&#xa;&#xa;&#xa;W5&#xa;Subnet ID: 172.20.160.0&#xa;First Host: 172.20.160.1&#xa;Last Host: 172.20.167.254&#xa;Broadcast: 172.20.167.255" style="text;whiteSpace=wrap;" parent="1" vertex="1">
          <mxGeometry x="1720" y="-352.75" width="170" height="492.75" as="geometry" />
        </mxCell>
      </root>
    </mxGraphModel>
  </diagram>
</mxfile>
